# xmcd
#
# Track frame offsets:
#	150
#	29494
#	56391
#	74279
#	91487
#	109397
#	118415
#	133429
#	152478
#	174743
#	194682
#	207078
#	221630
#	251882
#	263231
#	279464
#
# Disc length: 3909 seconds
#
# Revision: 1
# Processed by: cddbd v1.5.2PL0 Copyright (c) Steve Scherf et al.
# Submitted via: EZCDAudioConverter 1.3.4.1
#
DISCID=050f4310
DTITLE=Blur - Leisure 2/2
DYEAR=1991
DGENRE=
TTITLE0=I Know [Extended Mix]
TTITLE1=Down
TTITLE2=There's No Other Way [Extended Version]
TTITLE3=Inertia
TTITLE4=Mr. Briggs
TTITLE5=I'm All Over
TTITLE6=Won't Do It
TTITLE7=Day Upon Day [Live]
TTITLE8=There's No Other Way [Blur Remix]
TTITLE9=Bang [Extended Version]
TTITLE10=Explain
TTITLE11=Luminous
TTITLE12=Berserk
TTITLE13=Uncle Love
TTITLE14=I Love Her [Demo]
TTITLE15=Close
EXTD=
EXTT0=
EXTT1=
EXTT2=
EXTT3=
EXTT4=
EXTT5=
EXTT6=
EXTT7=
EXTT8=
EXTT9=
EXTT10=
EXTT11=
EXTT12=
EXTT13=
EXTT14=
EXTT15=
PLAYORDER=
